<svg width="26" height="26" viewBox="0 0 26 26" fill="none" xmlns="http://www.w3.org/2000/svg">
<path d="M13.097 0.552979C6.25252 0.552979 0.684021 6.12148 0.684021 12.966C0.684021 19.811 6.25252 25.38 13.097 25.38C19.9415 25.38 25.51 19.811 25.51 12.966C25.5105 6.12148 19.942 0.552979 13.097 0.552979ZM19.9555 12.0585V12.059L16.362 14.659L17.746 18.889C17.768 18.955 17.7795 19.0255 17.7795 19.0975C17.7795 19.467 17.4805 19.767 17.111 19.767C16.964 19.767 16.829 19.72 16.719 19.6405L13.0975 17.021L9.47602 19.6405C9.36602 19.72 9.23102 19.767 9.08452 19.767C8.71452 19.767 8.41502 19.4675 8.41502 19.0975C8.41502 19.025 8.42702 18.955 8.44902 18.889L9.83352 14.659L6.24002 12.059V12.0585C6.07202 11.9375 5.96302 11.74 5.96302 11.517C5.96302 11.1475 6.26202 10.8485 6.63202 10.8485H11.0805L12.458 6.63798C12.542 6.36448 12.7965 6.16548 13.098 6.16548C13.399 6.16548 13.654 6.36448 13.7375 6.63798L15.115 10.8485H19.5635C19.933 10.8485 20.2325 11.1475 20.2325 11.517C20.232 11.74 20.123 11.9375 19.9555 12.0585Z" fill="#F0145A"/>
</svg>
